<?xml version="1.0" encoding="UTF-8" standalone="no"?>
<!-- Created with Inkscape (http://www.inkscape.org/) -->
<svg xmlns:dc="http://purl.org/dc/elements/1.1/" xmlns:cc="http://web.resource.org/cc/" xmlns:rdf="http://www.w3.org/1999/02/22-rdf-syntax-ns#" xmlns:svg="http://www.w3.org/2000/svg" xmlns="http://www.w3.org/2000/svg" xmlns:xlink="http://www.w3.org/1999/xlink" xmlns:sodipodi="http://sodipodi.sourceforge.net/DTD/sodipodi-0.dtd" xmlns:inkscape="http://www.inkscape.org/namespaces/inkscape" width="777.16168" height="551.13013" id="svg2382" sodipodi:version="0.32" inkscape:version="0.45" sodipodi:docbase="E:\SVG_Clipart" sodipodi:docname="8ballandflames2.svg" inkscape:output_extension="org.inkscape.output.svg.inkscape" version="1.0" sodipodi:modified="true">
  <defs id="defs2384">
    <radialGradient inkscape:collect="always" xlink:href="#linearGradient3503" id="radialGradient5331" gradientUnits="userSpaceOnUse" gradientTransform="matrix(1, 0, 0, 1.08241, 0, -34.0989)" cx="229.14626" cy="328.48373" fx="229.14626" fy="328.48373" r="173.35715"/>
    <radialGradient inkscape:collect="always" xlink:href="#linearGradient18097" id="radialGradient5329" gradientUnits="userSpaceOnUse" gradientTransform="matrix(0.761573, -0.471923, 0.176499, 0.306915, 82.2647, 1025.85)" cx="1338.5675" cy="725.0144" fx="1338.5675" fy="725.0144" r="385.23822"/>
    <radialGradient inkscape:collect="always" xlink:href="#linearGradient15885" id="radialGradient5327" gradientUnits="userSpaceOnUse" gradientTransform="matrix(2.65972, -1.49301, 0.428992, 1.8894, -2941.94, 1392.58)" cx="1495.6917" cy="728.06146" fx="1495.6917" fy="728.06146" r="385.23822"/>
    <linearGradient id="linearGradient4232">
      <stop style="stop-color: rgb(255, 0, 0); stop-opacity: 1;" offset="0" id="stop4234"/>
      <stop id="stop4256" offset="0.5" style="stop-color: rgb(255, 255, 0); stop-opacity: 1;"/>
      <stop style="stop-color: rgb(255, 0, 0); stop-opacity: 1;" offset="0.75" id="stop4258"/>
      <stop style="stop-color: rgb(255, 255, 0); stop-opacity: 1;" offset="0.9375" id="stop4262"/>
      <stop id="stop4264" offset="0.96875" style="stop-color: rgb(255, 140, 0); stop-opacity: 0.498039;"/>
      <stop style="stop-color: rgb(255, 25, 0); stop-opacity: 0;" offset="1" id="stop4236"/>
    </linearGradient>
    <linearGradient id="linearGradient3503">
      <stop id="stop3505" offset="0.00000000" style="stop-color: rgb(255, 255, 255); stop-opacity: 1;"/>
      <stop id="stop3507" offset="1" style="stop-color: rgb(0, 0, 0); stop-opacity: 0;"/>
    </linearGradient>
    <linearGradient id="linearGradient18097">
      <stop style="stop-color: rgb(255, 0, 0); stop-opacity: 1;" offset="0.00000000" id="stop18101"/>
      <stop id="stop18103" offset="1.0000000" style="stop-color: rgb(255, 255, 0); stop-opacity: 1;"/>
    </linearGradient>
    <linearGradient id="linearGradient15885">
      <stop style="stop-color: rgb(255, 189, 0); stop-opacity: 1;" offset="0" id="stop15887"/>
      <stop id="stop15893" offset="0.50000000" style="stop-color: rgb(255, 0, 0); stop-opacity: 0.498039;"/>
      <stop style="stop-color: rgb(255, 189, 0); stop-opacity: 0;" offset="1" id="stop15889"/>
    </linearGradient>
  </defs>
  <sodipodi:namedview id="base" pagecolor="#ffffff" bordercolor="#666666" borderopacity="1.0" inkscape:pageopacity="0.0" inkscape:pageshadow="2" inkscape:zoom="0.49497475" inkscape:cx="638.76226" inkscape:cy="385.11438" inkscape:document-units="px" inkscape:current-layer="layer1" inkscape:window-width="801" inkscape:window-height="579" inkscape:window-x="1244" inkscape:window-y="220"/>
  <metadata id="metadata2387">
    <rdf:RDF>
      <cc:Work rdf:about="">
        <dc:format>image/svg+xml</dc:format>
        <dc:type rdf:resource="http://purl.org/dc/dcmitype/StillImage"/>
      </cc:Work>
    </rdf:RDF>
  </metadata>
  <g inkscape:label="Ebene 1" inkscape:groupmode="layer" id="layer1" transform="translate(-11.3287, 175.395)">
    <g id="g5315" transform="translate(-400.645, 56.5679)">
      <g transform="translate(-658.569, -459.338)" id="g3248">
        <path style="fill: rgb(255, 189, 0); fill-opacity: 1; fill-rule: evenodd; stroke: rgb(0, 0, 0); stroke-width: 0.660894px; stroke-linecap: butt; stroke-linejoin: miter; stroke-opacity: 1;" d="M 1514.7768,251.53565 C 1451.7431,269.90643 1435.9325,285.11813 1422.159,293.19314 C 1415.2721,297.23062 1386.743,326.95558 1377.5712,331.3259 C 1368.3994,335.69615 1362.7419,333.8161 1382.9994,308.61962 C 1353.3178,331.60174 1341.9088,353.52528 1314.3705,364.35292 C 1321.984,342.00619 1288.2938,362.68905 1329.5942,323.07213 C 1309.0377,334.23828 1260.4746,381.96869 1246.7229,379.33412 C 1237.2834,371.59325 1270.7966,351.42621 1271.0629,342.02957 C 1260.342,350.92652 1242.9136,349.10056 1220.8531,365.34133 C 1198.7925,381.58221 1180.5658,416.67304 1156.5122,433.87899 C 1132.4586,451.08493 1096.0973,521.10513 1096.0973,521.10513 L 1230.8235,630.67519 L 1279.0741,773.0246 C 1279.0741,773.0246 1362.8786,747.52862 1391.2326,736.3922 C 1419.5872,725.25567 1457.27,728.21839 1483.7466,718.21 C 1510.2232,708.20169 1525.4983,685.237 1539.3943,680.82112 C 1529.6485,676.83901 1488.7254,692.55859 1486.4131,684.45076 C 1489.8459,672.52266 1568.9454,660.78488 1585.5272,641.74315 C 1526.5214,656.37236 1556.3525,643.74028 1530.0623,639.72894 C 1553.4357,623.02317 1586.0276,630.55092 1623.829,607.87584 C 1588.981,612.48078 1578.5344,611.09862 1587.1019,605.8754 C 1595.6693,600.65228 1638.838,591.59129 1646.0459,588.00654 C 1660.4609,580.83691 1683.084,575.25985 1730.0138,534.16173 C 1718.0373,536.76169 1660.271,566.70865 1638.7304,554.20882 C 1631.2067,550.11865 1734.9291,504.11466 1771.8305,487.36745 C 1753.6988,478.64759 1716.1093,501.83303 1713.6367,495.80346 C 1708.7218,490.8709 1723.5834,504.58139 1821.1647,422.8065 C 1717.8506,478.68337 1771.2455,441.26884 1732.778,454.86366 C 1719.6844,456.38763 1767.03,436.69437 1802.6675,416.2596 C 1838.305,395.82492 1835.4826,393.44255 1847.3743,380.68276 C 1801.9467,400.87081 1819.6709,394.83807 1786.859,411.22922 C 1754.0472,427.62038 1697.4512,447.63698 1707.5766,437.96366 C 1700.3651,438.79972 1790.7289,405.64169 1810.594,374.97165 C 1760.0858,400.15687 1750.5431,395.84817 1723.0556,408.77366 C 1695.5681,421.69908 1718.3887,395.03218 1700.0408,403.71493 C 1690.6049,399.14218 1751.5991,382.98366 1749.3848,376.74804 C 1763.611,359.82602 1795.6305,358.0487 1805.8591,343.27505 C 1797.3087,348.27367 1713.622,376.78428 1716.8589,363.53238 C 1741.2183,355.14555 1751.6078,328.78857 1799.4837,305.44532 C 1847.3596,282.10208 1828.2524,283.49925 1840.775,262.09235 C 1785.4874,285.41691 1803.9872,277.37015 1759.0452,304.53006 C 1714.1031,331.68997 1703.1628,322.61559 1683.7077,337.92394 C 1668.687,334.54577 1735.249,281.80563 1744.1831,277.34853 C 1724.4858,278.75913 1708.3807,303.01344 1684.6998,306.59187 C 1679.2984,302.07977 1635.526,342.57621 1635.0487,333.15867 C 1652.1263,322.68308 1614.6407,328.62584 1640.1407,312.89526 C 1665.6406,297.16479 1665.468,287.7918 1713.794,259.52687 C 1673.513,261.38421 1599.2424,317.25646 1603.3149,311.99018 C 1588.8891,315.59434 1634.6488,280.24497 1666.0734,261.89651 C 1697.4982,243.54801 1683.3959,254.72615 1724.3366,228.20582 C 1705.9609,231.81474 1704.7873,228.5636 1667.9593,247.31852 C 1631.1316,266.07336 1589.8378,294.3124 1597.238,284.7532 C 1628.3197,260.7354 1566.1832,285.80389 1669.5012,229.93301 C 1542.2058,269.77259 1549.6357,287.49225 1546.7737,281.44952 C 1541.6987,276.82733 1582.2358,257.77073 1581.3875,239.70406 C 1547.7742,261.09148 1454.3653,321.69662 1453.5296,313.98941 C 1450.3285,291.57152 1506.7725,259.74139 1514.7768,251.53565 z " id="path15150" sodipodi:nodetypes="csscccccsscccsscccccssccccccscsccscccczczccccsccscscccccc"/>
        <path style="fill: url(&quot;#radialGradient5327&quot;) rgb(0, 0, 0); fill-opacity: 1; fill-rule: evenodd; stroke: rgb(0, 0, 0); stroke-width: 0.496101px; stroke-linecap: butt; stroke-linejoin: miter; stroke-opacity: 1;" d="M 1438.236,340.71763 C 1392.7234,355.05419 1381.3076,366.92541 1371.3626,373.22715 C 1366.39,376.378 1345.791,399.57537 1339.1686,402.98597 C 1332.5463,406.39651 1328.4614,404.92932 1343.088,385.26598 C 1321.6568,403.20123 1313.4191,420.31037 1293.5355,428.76026 C 1299.0327,411.32087 1274.7072,427.46178 1304.5275,396.54472 C 1289.685,405.25879 1254.6207,442.50762 1244.6915,440.4516 C 1237.8759,434.41062 1262.0736,418.67226 1262.2659,411.33911 C 1254.525,418.2823 1241.9411,416.85732 1226.0126,429.53162 C 1210.084,442.20601 1196.9237,469.5909 1179.5562,483.01843 C 1162.1886,496.44595 1135.9344,551.0897 1135.9344,551.0897 L 1233.2116,636.59824 L 1268.0502,747.68776 C 1268.0502,747.68776 1328.5601,727.79067 1349.0327,719.09982 C 1369.5057,710.40889 1396.714,712.72098 1415.8311,704.91043 C 1434.9481,697.09995 1445.9773,679.17829 1456.0107,675.73212 C 1448.9739,672.62449 1419.4259,684.89207 1417.7564,678.56474 C 1420.235,669.25604 1477.3477,660.09586 1489.3203,645.23571 C 1446.716,656.65234 1468.2551,646.79425 1449.2727,643.66383 C 1466.1491,630.62662 1489.6816,636.50124 1516.9756,618.80566 C 1491.8141,622.39933 1484.2713,621.32066 1490.4573,617.24447 C 1496.6433,613.16836 1527.8126,606.09715 1533.017,603.29965 C 1543.4251,597.70442 1559.7598,593.35213 1593.6448,561.27908 C 1584.9973,563.30812 1543.288,586.67877 1527.7349,576.92384 C 1522.3025,573.73193 1597.1938,537.83039 1623.8379,524.76084 C 1610.7462,517.95586 1583.6052,536.04975 1581.8199,531.34433 C 1578.2712,527.49492 1589.0018,538.1946 1659.459,474.37745 C 1584.8625,517.98378 1623.4155,488.78547 1595.6406,499.39487 C 1586.1866,500.58418 1620.3718,485.21555 1646.1033,469.26825 C 1671.8349,453.32102 1669.797,451.46182 1678.3833,441.50408 C 1645.5829,457.25884 1658.3804,452.55088 1634.689,465.34254 C 1610.9978,478.13421 1570.1334,493.75517 1577.4443,486.20611 C 1572.2374,486.85857 1637.4833,460.98203 1651.8266,437.04712 C 1615.3578,456.70168 1608.4677,453.33917 1588.6207,463.42622 C 1568.7738,473.51322 1585.251,452.70237 1572.0032,459.47839 C 1565.1902,455.90981 1609.2301,443.2997 1607.6313,438.43342 C 1617.9032,425.22747 1641.0224,423.84045 1648.4078,412.31109 C 1642.2341,416.21201 1581.8093,438.4617 1584.1465,428.11991 C 1601.7348,421.57483 1657.2003,377.03639 1691.7684,358.81931 C 1726.3365,340.60224 1755.1287,324.17317 1735.0312,331.71538 C 1685.5148,350.85314 1671.3663,354.01859 1638.9166,375.21419 C 1606.4668,396.40979 1574.2574,396.18844 1560.2101,408.13508 C 1549.3646,405.49875 1597.4248,364.34033 1603.8755,360.86201 C 1589.6534,361.96284 1578.0249,380.89092 1560.9265,383.68352 C 1557.0265,380.16228 1525.4212,411.76571 1525.0766,404.41626 C 1537.4072,396.24111 1510.3413,400.87884 1528.7532,388.60269 C 1547.165,376.32663 1547.0404,369.01194 1581.9335,346.95398 C 1552.8492,348.40345 1499.2232,392.00617 1502.1637,387.89637 C 1491.7477,390.70905 1524.7879,363.12239 1547.4775,348.80325 C 1570.1674,334.48408 1559.985,343.2075 1589.5456,322.51103 C 1576.2777,325.32743 1575.4304,322.79024 1548.8392,337.42658 C 1522.2483,352.06287 1492.4327,374.10062 1497.7759,366.64062 C 1520.218,347.89712 1475.3532,367.46058 1549.9525,323.85893 C 1458.0407,354.94975 1463.4054,368.77817 1461.3389,364.06243 C 1457.6746,360.45527 1486.9438,345.58349 1486.3313,331.48426 C 1462.0613,348.17501 1394.6167,395.47127 1394.0133,389.45657 C 1391.702,371.96164 1432.4566,347.12139 1438.236,340.71763 z " id="path16623" sodipodi:nodetypes="csscccccsscccsscccccssccccccscsccscccczczccccsccscscccccc"/>
        <path style="fill: url(&quot;#radialGradient5329&quot;) rgb(0, 0, 0); fill-opacity: 1; fill-rule: evenodd; stroke: rgb(0, 0, 0); stroke-width: 0.335222px; stroke-linecap: butt; stroke-linejoin: miter; stroke-opacity: 1;" d="M 1351.2125,428.45977 C 1320.3985,438.12819 1312.6696,446.13401 1305.9364,450.38383 C 1302.5697,452.50873 1288.6233,468.15278 1284.1397,470.45285 C 1279.6561,472.75288 1276.8905,471.76342 1286.7933,458.50268 C 1272.2835,470.59802 1266.7062,482.13623 1253.2442,487.83474 C 1256.966,476.07381 1240.4967,486.95906 1260.6862,466.10894 C 1250.6372,471.98561 1226.8973,497.10581 1220.1748,495.71925 C 1215.5603,491.64528 1231.9432,481.03151 1232.0734,476.08611 C 1226.8325,480.76852 1218.3126,479.80753 1207.5284,488.35494 C 1196.7441,496.90241 1187.834,515.37048 1176.0755,524.42585 C 1164.3169,533.48126 1146.5417,570.33236 1146.5417,570.33236 L 1212.4024,627.99836 L 1235.9896,702.91596 C 1235.9896,702.91596 1276.9573,689.49756 1290.8181,683.63646 C 1304.6792,677.77546 1323.1003,679.33466 1336.0434,674.06736 C 1348.9864,668.80006 1356.4536,656.71386 1363.2467,654.38976 C 1358.4825,652.29406 1338.4772,660.56716 1337.3469,656.30016 C 1339.025,650.02246 1377.6927,643.84496 1385.7987,633.82336 C 1356.9538,641.52266 1371.5366,634.87446 1358.6848,632.76326 C 1370.1108,623.97116 1386.0433,627.93296 1404.5224,615.99926 C 1387.4871,618.42276 1382.3803,617.69536 1386.5684,614.94646 C 1390.7566,612.19756 1411.8595,607.42876 1415.3831,605.54216 C 1422.4299,601.76876 1433.4891,598.83366 1456.4307,577.20396 C 1450.576,578.57236 1422.337,594.33326 1411.8069,587.75466 C 1408.129,585.60206 1458.8335,561.39046 1476.8727,552.57646 C 1468.009,547.98726 1449.6335,560.18956 1448.4247,557.01626 C 1446.0221,554.42026 1453.2872,561.63606 1500.9896,518.59847 C 1450.4847,548.00606 1476.5867,528.31508 1457.7819,535.46996 C 1451.3812,536.27196 1474.526,525.90757 1491.9473,515.15288 C 1509.3686,504.39825 1507.9889,503.14442 1513.8022,496.42904 C 1491.5949,507.05387 1500.2594,503.87887 1484.2193,512.50543 C 1468.1794,521.13199 1440.5125,531.66659 1445.4623,526.57559 C 1441.937,527.0156 1486.1112,509.56475 1495.8222,493.42331 C 1471.1313,506.67813 1466.4664,504.41049 1453.0292,511.21308 C 1439.592,518.01564 1450.7477,503.98104 1441.7784,508.55071 C 1437.1657,506.1441 1466.9826,497.63998 1465.9001,494.35822 C 1472.8546,485.45227 1488.5073,484.51688 1493.5075,476.74161 C 1489.3277,479.37234 1448.4176,494.37729 1449.9999,487.4029 C 1461.9079,482.98897 1469.8175,474.3813 1493.2216,462.09591 C 1516.6256,449.81051 1562.1044,418.28969 1548.4976,423.37608 C 1533.7056,433.43441 1503.105,440.55351 1481.1352,454.84759 C 1459.1654,469.14167 1443.3046,465.86867 1433.794,473.92535 C 1426.4511,472.14744 1458.9899,444.39066 1463.3573,442.04492 C 1453.7283,442.7873 1445.8554,455.55219 1434.279,457.43549 C 1431.6386,455.06081 1410.2405,476.37381 1410.0072,471.41742 C 1418.3555,465.90419 1400.0307,469.03182 1412.4964,460.75292 C 1424.9619,452.47409 1424.8776,447.54114 1448.5016,432.6655 C 1428.8104,433.643 1392.5033,463.04819 1394.4942,460.27659 C 1387.4421,462.17343 1409.8117,443.56929 1425.1735,433.91262 C 1440.5355,424.25593 1433.6416,430.13891 1453.6553,416.18144 C 1444.6724,418.08079 1444.0988,416.36974 1426.0954,426.24032 C 1408.0923,436.11087 1387.9059,450.97289 1391.5234,445.94195 C 1406.7177,433.30154 1376.3423,446.49492 1426.8492,417.09045 C 1364.6211,438.05775 1368.2532,447.38349 1366.8541,444.20325 C 1364.3732,441.77062 1384.1897,431.74125 1383.775,422.23289 C 1367.3432,433.48895 1321.6804,465.38502 1321.2718,461.32877 C 1319.707,449.53038 1347.2996,432.7784 1351.2125,428.45977 z " id="path17367" sodipodi:nodetypes="csscccccsscccsscccccssccccccscsccscccczczccccsccscscccccc"/>
      </g>
      <g transform="translate(1505.15, 167.379)" id="g3234">
        <path sodipodi:type="arc" style="fill: rgb(0, 0, 0); fill-opacity: 1; fill-rule: nonzero; stroke: rgb(0, 0, 0); stroke-width: 1; stroke-linecap: round; stroke-linejoin: round; stroke-miterlimit: 4; stroke-dasharray: none; stroke-dashoffset: 0pt; stroke-opacity: 1;" id="path3236" sodipodi:cx="281.42856" sodipodi:cy="413.79074" sodipodi:rx="172.85715" sodipodi:ry="187.14285" d="M 454.28571 413.79074 A 172.85715 187.14285 0 1 1  108.57141,413.79074 A 172.85715 187.14285 0 1 1  454.28571 413.79074 z" transform="matrix(1.03832, 0, 0, 0.959221, -1205.41, -425.513)"/>
        <path sodipodi:type="arc" style="fill: url(&quot;#radialGradient5331&quot;) rgb(0, 0, 0); fill-opacity: 1; fill-rule: nonzero; stroke: rgb(0, 0, 0); stroke-width: 1; stroke-linecap: round; stroke-linejoin: round; stroke-miterlimit: 4; stroke-dasharray: none; stroke-dashoffset: 0pt; stroke-opacity: 1;" id="path3238" sodipodi:cx="281.42856" sodipodi:cy="413.79074" sodipodi:rx="172.85715" sodipodi:ry="187.14285" d="M 454.28571 413.79074 A 172.85715 187.14285 0 1 1  108.57141,413.79074 A 172.85715 187.14285 0 1 1  454.28571 413.79074 z" transform="matrix(1.03832, 0, 0, 0.959221, -1205, -424.639)"/>
        <path style="fill: rgb(255, 255, 255); fill-opacity: 1; fill-rule: nonzero; stroke: rgb(0, 0, 0); stroke-width: 0.419745; stroke-linecap: round; stroke-linejoin: round; stroke-miterlimit: 4; stroke-dasharray: none; stroke-dashoffset: 0pt; stroke-opacity: 1;" d="M -868.40625,-183.1875 C -910.07568,-183.1875 -943.90622,-149.364 -943.90625,-107.6875 C -943.90625,-66.010996 -910.07565,-32.187499 -868.40625,-32.1875 C -826.73682,-32.1875 -792.90622,-66.010996 -792.90625,-107.6875 C -792.90625,-149.364 -826.73679,-183.1875 -868.40625,-183.1875 z M -857.0625,-161.40625 C -849.10058,-161.37105 -840.98218,-157.92064 -832.6875,-151.09375 C -824.35569,-144.236 -819.42202,-136.91622 -817.875,-129.125 C -816.32825,-121.33373 -818.308,-114.0942 -823.8125,-107.40625 C -827.74889,-102.62378 -832.42936,-99.689528 -837.875,-98.59375 C -843.32082,-97.497971 -848.9462,-98.322348 -854.75,-101.09375 C -850.34065,-95.333611 -848.12572,-89.361489 -848.125,-83.15625 C -848.12447,-76.951048 -850.3213,-71.186682 -854.71875,-65.84375 C -861.392,-57.736022 -868.98224,-53.540745 -877.5,-53.28125 C -886.0179,-53.021828 -894.8964,-56.685536 -904.125,-64.28125 C -913.35368,-71.877027 -918.67917,-79.872512 -920.0625,-88.28125 C -921.44585,-96.689995 -918.79822,-104.95473 -912.125,-113.0625 C -907.72747,-118.40538 -902.452,-121.66646 -896.34375,-122.84375 C -890.23559,-124.02099 -883.93812,-123.00068 -877.4375,-119.78125 C -881.31067,-124.97461 -883.24692,-130.35139 -883.21875,-135.90625 C -883.19067,-141.46104 -881.18632,-146.62375 -877.25,-151.40625 C -871.74546,-158.09416 -865.02457,-161.44132 -857.0625,-161.40625 z M -854.46875,-147.875 C -859.17653,-147.67589 -863.30784,-145.39656 -866.875,-141.0625 C -870.44229,-136.72836 -871.86625,-132.25183 -871.15625,-127.59375 C -870.44639,-122.93561 -867.64462,-118.591 -862.75,-114.5625 C -857.89291,-110.56473 -853.0889,-108.64416 -848.34375,-108.8125 C -843.5988,-108.9808 -839.44234,-111.22838 -835.875,-115.5625 C -832.30789,-119.89658 -830.90906,-124.40485 -831.65625,-129.09375 C -832.40368,-133.78258 -835.20542,-138.12719 -840.0625,-142.125 C -844.95716,-146.15347 -849.76115,-148.07402 -854.46875,-147.875 z M -885.3125,-111.8125 C -885.65287,-111.80988 -886.00311,-111.80249 -886.34375,-111.78125 C -891.79414,-111.44133 -896.59852,-108.73149 -900.75,-103.6875 C -904.90159,-98.643496 -906.62082,-93.413996 -905.90625,-88 C -905.19174,-82.586024 -902.1303,-77.678312 -896.75,-73.25 C -891.36977,-68.821727 -885.95321,-66.78182 -880.46875,-67.125 C -874.98438,-67.468244 -870.18335,-70.149634 -866.0625,-75.15625 C -861.91103,-80.200262 -860.19179,-85.429771 -860.90625,-90.84375 C -861.62088,-96.257742 -864.67619,-101.1972 -870.09375,-105.65625 C -875.13783,-109.80776 -880.20695,-111.85176 -885.3125,-111.8125 z " id="path3240"/>
        <text xml:space="preserve" style="font-size: 148.657px; font-style: normal; font-variant: normal; font-weight: normal; font-stretch: normal; text-align: start; line-height: 125%; text-anchor: start; opacity: 0.27381; fill: rgb(0, 0, 0); fill-opacity: 1; stroke: none; stroke-width: 1px; stroke-linecap: butt; stroke-linejoin: miter; stroke-opacity: 1; font-family: Bitstream Vera Sans;" x="-786.316" y="522.863" id="text3242" sodipodi:linespacing="125%" transform="matrix(0.772107, 0.635492, -0.635492, 0.772107, 0, 0)"><tspan sodipodi:role="line" id="tspan3244" x="-786.316" y="522.863">8</tspan></text>
      </g>
    </g>
  </g>
</svg>